<svg id="Layer_1" data-name="Layer 1" xmlns="http://www.w3.org/2000/svg" viewBox="0 0 32 32"><defs><style>.cls-1{fill:#fcbe2f;}.cls-2{fill:#5e8238;}</style></defs><path class="cls-1" d="M20.91,16c0,.89-.07,1.73-.13,2.56a.4.4,0,0,1-.15.3c-.53.33-1.07.63-1.6.94-.94.56-1.88,1.12-2.83,1.67a.27.27,0,0,1-.23,0c-1-.54-2-1.08-3-1.64-.53-.3-1-.64-1.55-1a.46.46,0,0,1-.18-.32c0-1.69,0-3.38,0-5.08a.45.45,0,0,1,.26-.43c.93-.56,1.84-1.16,2.77-1.7.52-.3,1.07-.53,1.6-.8.28-.14.46.08.65.17.78.39,1.54.8,2.29,1.22.31.17.57.4.86.59s.6.35.88.55a.58.58,0,0,1,.24.36C20.84,14.29,20.87,15.17,20.91,16Z"/><path class="cls-1" d="M17.53,9.75c.56-.22,1.07-.43,1.59-.62,1.16-.42,2.31-.87,3.5-1.21a12.35,12.35,0,0,1,3.52-.63A3.47,3.47,0,0,1,28.58,8a1.91,1.91,0,0,1,.61,1.93,5.34,5.34,0,0,1-1.07,2.19c-.19.25-.33.55-.54.78-.66.71-1.35,1.39-2,2.08-.05,0-.24,0-.31,0-.68-.53-1.34-1.08-2-1.59S22,12.49,21.4,12.08s-1.2-.81-1.82-1.18S18.25,10.15,17.53,9.75Z"/><path class="cls-1" d="M11.35,11.6c.17-1,.31-2,.49-2.95s.34-1.93.59-2.87a23.43,23.43,0,0,1,.81-2.26,4.9,4.9,0,0,1,1.27-1.89A2.1,2.1,0,0,1,17.78,2a12.53,12.53,0,0,1,1.85,4,12,12,0,0,1,.29,1.22c0,.17,0,.27-.19.34-.89.31-1.79.62-2.65,1s-1.72.83-2.57,1.25A4.52,4.52,0,0,0,14,10Z"/><path class="cls-1" d="M9.84,17.8l-2.36-2c-.35-.3-.72-.57-1.06-.88-.55-.53-1.11-1.06-1.62-1.63a7.65,7.65,0,0,1-1.94-3.09A2.05,2.05,0,0,1,4.57,7.5a9.47,9.47,0,0,1,3.75.18l1.82.43c.37.09.41.21.31.57a6.56,6.56,0,0,0-.19,1.06c-.07.63-.09,1.26-.18,1.88a35,35,0,0,0-.24,4.91Z"/><path class="cls-2" d="M22.12,14.14c.44.35.85.65,1.23,1,1.22,1.08,2.46,2.14,3.63,3.27a8.4,8.4,0,0,1,2,2.87,2.55,2.55,0,0,1,0,2.19,2.11,2.11,0,0,1-1.58,1,8.13,8.13,0,0,1-3.11-.05c-.91-.17-1.79-.42-2.69-.62-.18,0-.23-.13-.19-.31a42,42,0,0,0,.67-9.16S22.11,14.26,22.12,14.14Z"/><path class="cls-2" d="M20.68,20.37c-.08.54-.15,1-.22,1.43a31.62,31.62,0,0,1-1.27,5.69,7.28,7.28,0,0,1-1.5,2.72,2.16,2.16,0,0,1-2.39.64A3.44,3.44,0,0,1,14,29.62a14.22,14.22,0,0,1-1.72-4.1c-.07-.24-.12-.48-.19-.72s0-.28.19-.34a33,33,0,0,0,4.75-2c1.13-.58,2.22-1.24,3.32-1.86Z"/><path class="cls-2" d="M14.5,22.23,12.65,23A30.33,30.33,0,0,1,8,24.41a8.12,8.12,0,0,1-3.29.18,2.5,2.5,0,0,1-1.6-.92,2,2,0,0,1-.22-2A8.75,8.75,0,0,1,4.66,18.8c.54-.62,1.13-1.2,1.7-1.8.15-.17.26-.17.45,0A35.79,35.79,0,0,0,12,20.76c.71.43,1.45.84,2.17,1.26C14.28,22.07,14.35,22.13,14.5,22.23Z"/></svg>